# xmcd
#
# Track frame offsets:
#	150
#	9820
#	19852
#	32665
#	45422
#	56377
#	67065
#	79785
#	92227
#	102452
#	115405
#	124740
#	137950
#	149600
#	159155
#	166800
#	180635
#	196782
#	207312
#	217127
#	229355
#	239897
#	250305
#	262395
#	271040
#	280867
#	293232
#	303262
#	314515
#	326835
#	337462
#
# Disc length: 4712 seconds
#
# Revision: 1
# Processed by: cddbd v1.5.1PL2 Copyright (c) Steve Scherf et al.
# Submitted via: audiograbber 1.83.01
#
DISCID=e212661f
DTITLE=Carl Perkins - Carls rocks
DYEAR=1950
DGENRE=rock en roll
TTITLE0=matchbox
TTITLE1=Everybody's trying to be my baby
TTITLE2=Honey don't
TTITLE3=Put you're cat clothes on
TTITLE4=Dixie fried
TTITLE5=You can do no wrong
TTITLE6=Boppin' the blues
TTITLE7=your true love
TTITLE8=Blue suede shoes
TTITLE9=Her love rubbed off
TTITLE10=Caldonia
TTITLE11=Gone, gone, gone
TTITLE12=Right string, wrong yo-yo
TTITLE13=All mama's children
TTITLE14=Glad all over
TTITLE15=Where the Rio de rosa flows
TTITLE16=That's all right
TTITLE17=rockin' record hop
TTITLE18=Sittin' on the top of the world
TTITLE19=Because yo're mine
TTITLE20=Jive after five
TTITLE21=Honey,'cause i love you
TTITLE22=Big bad blues
TTITLE23=Lonely heart
TTITLE24=i wouldn't have you
TTITLE25=Restless
TTITLE26=Honky Tonk Song
TTITLE27=The E.P. Express
TTITLE28=Big bad blues
TTITLE29=Baby, bye Bye
TTITLE30=Memphis in the meantime
EXTD=
EXTT0=
EXTT1=
EXTT2=
EXTT3=
EXTT4=
EXTT5=
EXTT6=
EXTT7=
EXTT8=
EXTT9=
EXTT10=
EXTT11=
EXTT12=
EXTT13=
EXTT14=
EXTT15=
EXTT16=
EXTT17=
EXTT18=
EXTT19=
EXTT20=
EXTT21=
EXTT22=
EXTT23=
EXTT24=
EXTT25=
EXTT26=
EXTT27=
EXTT28=
EXTT29=
EXTT30=
PLAYORDER=
